<svg version="1.1" xmlns="http://www.w3.org/2000/svg" viewBox="0 0 137.144 137.144" xmlns:xlink="http://www.w3.org/1999/xlink" enable-background="new 0 0 137.144 137.144">
<g>
<g>
<path d="m80.144,27.429c-7.644,0-11.911,1.809-15.804,5.429-3.894,3.618-2.625,9.81-2.625,15.143v13.715h-13.714v13.714h13.715v34.286h13.714v-34.287h10.286l3.429-13.714h-13.716v-6.858c0-2.285 0.079-1.404 0-6.857-0.075-4.893 2.963-6.857 5.679-6.857h5.464l2.572-12.952v-0.334c-0.929-0.126-1.286-0.11-3.215-0.239-1.928-0.125-3.857-0.189-5.785-0.189zm29.571-27.429h-82.286c-15.149,0-27.429,12.28-27.429,27.429v82.287c0,15.148 12.28,27.429 27.429,27.429h82.286c15.148,0 27.429-12.28 27.429-27.429v-82.287c0-15.149-12.28-27.429-27.429-27.429zm13.715,102.858c0,11.361-9.21,20.572-20.571,20.572h-68.573c-11.361,0-20.572-9.211-20.572-20.572v-68.572c0-11.362 9.21-20.572 20.572-20.572h68.572c11.361,0 20.571,9.21 20.571,20.572v68.572z" id="id_101" style="fill: rgb(255, 255, 255);"></path>
</g>
</g>
</svg>